<!DOCTYPE svg PUBLIC "-//W3C//DTD SVG 1.1//EN" "http://www.w3.org/Graphics/SVG/1.1/DTD/svg11.dtd">
<!-- Uploaded to: SVG Repo, www.svgrepo.com, Transformed by: SVG Repo Mixer Tools -->
<svg width="800px" height="800px" viewBox="0 0 24 24" fill="none" xmlns="http://www.w3.org/2000/svg">
<g id="SVGRepo_bgCarrier" stroke-width="0"/>
<g id="SVGRepo_tracerCarrier" stroke-linecap="round" stroke-linejoin="round"/>
<g id="SVGRepo_iconCarrier"> <path d="M8.5 2C6.84315 2 5.5 3.34315 5.5 5C5.5 6.65685 6.84315 8 8.5 8H15.5C17.1569 8 18.5 6.65685 18.5 5C18.5 3.34315 17.1569 2 15.5 2H8.5Z" fill="#112A52"/> <path d="M15.5 9C13.8431 9 12.5 10.3431 12.5 12C12.5 13.6569 13.8431 15 15.5 15C17.1569 15 18.5 13.6569 18.5 12C18.5 10.3431 17.1569 9 15.5 9Z" fill="#112A52"/> <path d="M5.5 12C5.5 10.3431 6.84315 9 8.5 9H11.5V15H8.5C6.84315 15 5.5 13.6569 5.5 12Z" fill="#112A52"/> <path d="M8.5 16C6.84315 16 5.5 17.3431 5.5 19C5.5 20.6569 6.84315 22 8.5 22C10.1569 22 11.5 20.6569 11.5 19V16H8.5Z" fill="#112A52"/> </g>
</svg>